# xmcd
#
# Track frame offsets:
#	150
#	13116
#	24792
#	40431
#	61512
#	74186
#	94693
#	110885
#	128208
#	145609
#	157653
#	172699
#	186454
#	200141
#	214875
#
# Disc length: 3012 seconds
#
# Revision: 1
# Processed by: cddbd v1.5.2PL0 Copyright (c) Steve Scherf et al.
# Submitted via: audiograbber 1.83.01
#
DISCID=d30bc20f
DTITLE=Western Heart - Western Heart 001
DYEAR=1900
DGENRE=Country
TTITLE0=Quater Freinds - Freddy Lovvorn and Paul Mateki
TTITLE1=Take Me Back - Kevin Shaw
TTITLE2=Lifetime Love Affair - Staci Johnson
TTITLE3=Lifetime Love Affair - Richard Burr
TTITLE4=Shamrock Hotel - Ernie Ashworth
TTITLE5=Honky Tonk Bar - Joyce Meré
TTITLE6=The Best Way I Know How - Darren Coleman
TTITLE7=Jukebox Jumpin - Ernie Givers and The White Lies Band
TTITLE8=Perfectly - Beth Singer
TTITLE9=Frustrated But I´ll Make It - Tom Gunningham
TTITLE10=The Old Brass Rail - Jamie Culter Harper
TTITLE11=Yodeling Blues - Jaime Beaver
TTITLE12=Emty Rooms - David Thompson
TTITLE13=Bottle Of Wine And Patzy Cline - Shiloh West
TTITLE14=Wispering Now - Charlie Louvin
EXTD=
EXTT0=
EXTT1=
EXTT2=
EXTT3=
EXTT4=
EXTT5=
EXTT6=
EXTT7=
EXTT8=
EXTT9=
EXTT10=
EXTT11=
EXTT12=
EXTT13=
EXTT14=
PLAYORDER=
